<svg xmlns="http://www.w3.org/2000/svg" xmlns:xlink="http://www.w3.org/1999/xlink" width="32" zoomAndPan="magnify" viewBox="0 0 24 23.999999" height="32" preserveAspectRatio="xMidYMid meet" version="1.0"><path fill="#ffffff" d="M 18.164062 14.234375 C 17.777344 14.007812 17.304688 14.011719 16.917969 14.242188 L 14.976562 15.398438 C 14.542969 15.660156 14 15.628906 13.597656 15.316406 C 12.910156 14.777344 11.800781 13.871094 10.835938 12.90625 C 9.867188 11.941406 8.960938 10.832031 8.421875 10.140625 C 8.113281 9.742188 8.082031 9.199219 8.339844 8.765625 L 9.5 6.820312 C 9.726562 6.4375 9.730469 5.960938 9.503906 5.574219 L 6.652344 0.703125 C 6.375 0.234375 5.828125 0 5.296875 0.132812 C 4.78125 0.257812 4.109375 0.5625 3.410156 1.265625 C 1.210938 3.460938 0.0429688 7.167969 8.308594 15.433594 C 16.574219 23.699219 20.277344 22.53125 22.476562 20.332031 C 23.179688 19.628906 23.484375 18.957031 23.613281 18.441406 C 23.742188 17.910156 23.511719 17.367188 23.042969 17.089844 C 21.867188 16.40625 19.335938 14.921875 18.164062 14.234375 Z M 18.164062 14.234375 " fill-opacity="1" fill-rule="nonzero"/><path fill="#ffffff" d="M 18.164062 14.234375 C 17.777344 14.007812 17.304688 14.011719 16.917969 14.242188 L 14.976562 15.398438 C 14.542969 15.660156 14 15.628906 13.597656 15.316406 C 12.910156 14.777344 11.800781 13.871094 10.835938 12.90625 C 9.867188 11.941406 8.960938 10.832031 8.421875 10.140625 C 8.113281 9.742188 8.082031 9.199219 8.339844 8.765625 L 9.5 6.820312 C 9.726562 6.4375 9.730469 5.960938 9.503906 5.574219 L 6.652344 0.703125 C 6.375 0.234375 5.828125 0 5.296875 0.132812 C 4.78125 0.257812 4.109375 0.5625 3.410156 1.265625 C 1.210938 3.460938 0.0429688 7.167969 8.308594 15.433594 C 16.574219 23.699219 20.277344 22.53125 22.476562 20.332031 C 23.179688 19.628906 23.484375 18.957031 23.613281 18.441406 C 23.742188 17.910156 23.511719 17.367188 23.042969 17.089844 C 21.867188 16.40625 19.335938 14.921875 18.164062 14.234375 Z M 18.164062 14.234375 " fill-opacity="1" fill-rule="nonzero"/></svg>